<svg height="512pt" viewBox="-53 0 512 512.00038" width="512pt" xmlns="http://www.w3.org/2000/svg"><path d="m247.171875 317.792969h88.277344c39.003906 0 70.621093 31.617187 70.621093 70.621093v123.585938h-406.070312v-123.585938c0-39.003906 31.617188-70.621093 70.621094-70.621093z" fill="#eaeae8"/><path d="m88.277344 397.242188h17.652344v17.65625h-17.652344zm0 0"/><path d="m203.035156 423.722656c-4.875 0-8.828125-3.949218-8.828125-8.824218v-70.621094c0-4.875 3.953125-8.828125 8.828125-8.828125s8.828125 3.953125 8.828125 8.828125v70.621094c0 4.875-3.953125 8.824218-8.828125 8.824218zm0 0" fill="#cbcbcb"/><path d="m0 441.378906h70.621094v70.621094h-70.621094zm0 0" fill="#fdc9a6"/><path d="m335.449219 441.378906h70.621093v70.621094h-70.621093zm0 0" fill="#fdc9a6"/><path d="m158.898438 264.828125h88.273437v79.449219h-88.273437zm0 0" fill="#fdc9a6"/><path d="m158.898438 288.230469c27.28125 15.875 60.992187 15.875 88.273437 0v-23.402344h-88.273437zm0 0" fill="#f6bb92"/><path d="m313.378906 203.035156h-30.894531v-44.136718h30.894531c12.1875 0 22.070313 9.878906 22.070313 22.066406s-9.882813 22.070312-22.070313 22.070312zm0 0" fill="#f6bb92"/><path d="m92.691406 203.035156h30.894532v-44.136718h-30.894532c-12.191406 0-22.070312 9.878906-22.070312 22.066406s9.878906 22.070312 22.070312 22.070312zm0 0" fill="#f6bb92"/><path d="m114.757812 132.414062v61.792969c0 48.753907 39.523438 88.277344 88.277344 88.277344s88.277344-39.523437 88.277344-88.277344v-61.792969zm0 0" fill="#fdc9a6"/><g fill="#985713"><path d="m158.898438 185.378906c-4.878907 0-8.828126-3.953125-8.828126-8.828125v-8.828125c0-4.875 3.949219-8.828125 8.828126-8.828125 4.875 0 8.824218 3.953125 8.824218 8.828125v8.828125c0 4.875-3.949218 8.828125-8.824218 8.828125zm0 0"/><path d="m247.171875 185.378906c-4.875 0-8.828125-3.953125-8.828125-8.828125v-8.828125c0-4.875 3.953125-8.828125 8.828125-8.828125s8.828125 3.953125 8.828125 8.828125v8.828125c0 4.875-3.953125 8.828125-8.828125 8.828125zm0 0"/><path d="m211.863281 203.035156h-8.828125c-4.875 0-8.828125-3.953125-8.828125-8.828125v-17.65625c0-4.875 3.953125-8.828125 8.828125-8.828125s8.828125 3.953125 8.828125 8.828125v8.828125c4.875 0 8.828125 3.953125 8.828125 8.828125s-3.953125 8.828125-8.828125 8.828125zm0 0"/><path d="m203.035156 242.484375c-7.492187.011719-14.886718-1.722656-21.59375-5.066406-4.363281-2.175781-6.136718-7.480469-3.957031-11.84375 2.175781-4.363281 7.476563-6.132813 11.839844-3.957031 8.632812 4.292968 18.78125 4.292968 27.410156 0 4.34375-2.214844 9.660156-.488282 11.875 3.855468 2.210937 4.34375.484375 9.660156-3.859375 11.875-.039062.019532-.082031.042969-.121094.0625-6.707031 3.34375-14.101562 5.082032-21.59375 5.074219zm0 0"/></g><path d="m70.621094 105.929688h264.828125c9.75 0 17.65625 7.90625 17.65625 17.65625s-7.90625 17.65625-17.65625 17.65625h-264.828125c-9.75 0-17.65625-7.90625-17.65625-17.65625s7.90625-17.65625 17.65625-17.65625zm0 0" fill="#f7ba61"/><path d="m185.378906 0h35.3125c39 0 70.617188 31.617188 70.617188 70.621094v35.308594h-176.550782v-35.308594c0-39.003906 31.617188-70.621094 70.621094-70.621094zm0 0" fill="#f7ba61"/><path d="m114.757812 70.621094h176.554688v35.308594h-176.554688zm0 0" fill="#dc4d41"/><path d="m158.898438 317.792969 44.136718 26.484375-44.136718 26.480468zm0 0" fill="#dbdbdb"/><path d="m247.171875 361.929688v-44.136719l-44.136719 26.484375 44.136719 26.480468z" fill="#dbdbdb"/><path d="m70.621094 406.070312h264.828125v105.929688h-264.828125zm0 0" fill="#5d9aa4"/><path d="m105.929688 441.378906h194.207031v70.621094h-194.207031zm0 0" fill="#3b869e"/><path d="m123.585938 317.792969v97.105469c0 14.625-11.855469 26.480468-26.480469 26.480468-14.628907 0-26.484375-11.855468-26.484375-26.480468v-97.105469zm0 0" fill="#a45e14"/><path d="m335.449219 317.792969v97.105469c0 14.625-11.855469 26.480468-26.484375 26.480468-14.625 0-26.480469-11.855468-26.480469-26.480468v-97.105469zm0 0" fill="#a45e14"/><path d="m88.277344 397.242188h17.652344v17.65625h-17.652344zm0 0" fill="#834b10"/><path d="m300.136719 397.242188h17.65625v17.65625h-17.65625zm0 0" fill="#834b10"/></svg>